# xmcd CD database file
#
# Track frame offsets:
#	150
#	19227
#	36077
#	52392
#	75247
#	89595
#	106022
#	122182
#	137487
#	151015
#
# Disc length: 2270 seconds
#
# Revision: 1
# Processed by: cddbd v1.5.1PL0 Copyright (c) Steve Scherf et al.
# Submitted via: CDex 1.51
#
DISCID=7608dc0a
DTITLE=Return - To The Top
DYEAR=1987
DGENRE=Folk-Rock
TTITLE0=To The Top
TTITLE1=I Should Have Known Better
TTITLE2=Take Care Of Your Woman
TTITLE3=So Many Times
TTITLE4=Caught In The Middle
TTITLE5=Be Good
TTITLE6=Angel Of Delight
TTITLE7=Half A Man
TTITLE8=How Can You Tell
TTITLE9=Sing Me A Song
EXTD=YEAR: 1987
EXTT0=
EXTT1=
EXTT2=
EXTT3=
EXTT4=
EXTT5=
EXTT6=
EXTT7=
EXTT8=
EXTT9=
PLAYORDER=
